<svg xmlns="http://www.w3.org/2000/svg" width="1024" height="1024" viewBox="0 0 1024 1024">
  <defs>
    <linearGradient id="bg" x1="160" y1="120" x2="880" y2="920" gradientUnits="userSpaceOnUse">
      <stop offset="0" stop-color="#00e5a0"/>
      <stop offset="0.52" stop-color="#4e9eff"/>
      <stop offset="1" stop-color="#ff6b35"/>
    </linearGradient>
    <filter id="shadow" x="-20%" y="-20%" width="140%" height="140%">
      <feDropShadow dx="0" dy="42" stdDeviation="42" flood-color="#000000" flood-opacity="0.35"/>
    </filter>
  </defs>
  <rect width="1024" height="1024" rx="240" fill="#0f1117"/>
  <rect x="88" y="88" width="848" height="848" rx="208" fill="url(#bg)" filter="url(#shadow)"/>
  <rect x="186" y="186" width="652" height="652" rx="156" fill="#10141f" opacity="0.92"/>
  <path d="M409 604 300 495c-28-28-72-28-100 0s-28 72 0 100l159 159c28 28 73 28 101 0l360-360c28-28 28-72 0-100s-72-28-100 0L409 604Z" fill="#00e5a0"/>
  <circle cx="694" cy="300" r="58" fill="#ff6b35"/>
  <path d="M320 322h226c34 0 62 28 62 62s-28 62-62 62H320c-34 0-62-28-62-62s28-62 62-62Z" fill="#4e9eff"/>
</svg>
